<?xml version="1.0" standalone="no"?>
<!DOCTYPE svg PUBLIC "-//W3C//DTD SVG 20010904//EN"
 "http://www.w3.org/TR/2001/REC-SVG-20010904/DTD/svg10.dtd">
<svg version="1.0" xmlns="http://www.w3.org/2000/svg"
 width="1020.000000pt" height="964.000000pt" viewBox="0 0 1020.000000 964.000000"
 preserveAspectRatio="xMidYMid meet">

<g transform="translate(0.000000,964.000000) scale(0.100000,-0.100000)"
fill="#000000" stroke="none">
<path d="M8360 8009 c0 -45 -76 -93 -107 -67 -17 14 -17 12 7 -58 50 -144 97
-399 121 -649 6 -71 14 -521 19 -1100 9 -1099 12 -1154 77 -1356 7 -23 -45
-31 -197 -30 -367 2 -581 170 -620 487 -8 61 -8 171 -1 368 17 479 23 1099 12
1366 -16 417 -58 657 -146 842 l-18 36 -49 -53 c-27 -30 -58 -57 -69 -60 -14
-5 -19 -13 -15 -23 106 -319 121 -502 112 -1348 -3 -335 -9 -714 -12 -841 -7
-256 1 -349 41 -469 45 -136 135 -256 247 -332 134 -92 389 -152 587 -139 l94
7 -6 -143 c-11 -243 -47 -611 -91 -922 -12 -88 -12 -105 1 -140 19 -50 40 -68
128 -112 123 -61 195 -161 195 -268 0 -157 -70 -279 -198 -343 -54 -26 -71
-30 -163 -31 -167 -3 -183 -18 -263 -231 -23 -59 -235 -478 -311 -610 -92
-162 -187 -310 -200 -309 -5 0 -41 28 -78 63 l-69 63 47 72 c204 319 359 780
401 1191 35 349 -9 677 -122 903 -29 57 -92 163 -111 187 -60 75 -114 138
-130 150 -126 103 -242 177 -303 194 -24 7 -24 6 5 -19 222 -197 340 -397 410
-701 32 -135 44 -414 26 -599 -40 -431 -173 -739 -426 -989 -44 -44 -72 -76
-62 -73 26 9 70 -38 97 -103 12 -30 31 -67 41 -81 10 -15 24 -51 30 -80 10
-49 18 -61 92 -132 45 -43 110 -94 144 -114 80 -45 117 -87 109 -125 -3 -15
-4 -28 -1 -28 2 0 25 35 50 77 26 43 51 80 54 83 8 6 163 266 208 350 17 30
41 73 53 95 26 46 190 372 190 379 0 2 17 42 39 88 21 45 41 91 44 100 5 15
19 18 81 18 261 0 474 202 502 474 8 82 -23 213 -70 293 -54 92 -155 178 -248
212 -34 13 -35 20 -8 206 33 232 59 500 66 677 l7 168 77 -79 c209 -215 500
-316 894 -309 193 3 173 -9 183 112 l6 69 -34 -7 c-75 -15 -249 -18 -349 -6
-317 37 -521 144 -647 338 -47 73 -89 169 -113 260 -44 165 -51 310 -60 1347
-5 539 -12 994 -14 1010 -3 17 -12 93 -21 170 -28 239 -108 576 -151 632 -12
17 -13 16 -14 -8z"/>
<path d="M4717 7333 c-12 -19 10 -201 34 -278 38 -122 133 -305 208 -398 84
-105 219 -244 297 -305 l41 -33 6 -102 c8 -129 30 -249 55 -308 32 -74 109
-127 224 -154 34 -8 66 -11 70 -7 12 12 28 160 28 255 0 115 -20 209 -61 292
-43 87 -82 130 -184 200 -255 176 -473 383 -586 556 -65 98 -112 204 -121 269
-2 16 -6 21 -11 13z"/>
<path d="M6507 7224 c-3 -11 -8 -35 -12 -54 -27 -150 -121 -318 -283 -509
l-30 -35 -26 53 c-56 109 -137 232 -216 325 -64 76 -88 100 -88 86 4 -67 -41
-140 -86 -140 -19 0 -12 -11 42 -67 114 -121 202 -272 250 -428 42 -138 61
-219 73 -322 14 -112 19 -123 47 -93 61 66 89 190 72 321 -10 72 -9 91 2 102
62 63 222 268 266 341 66 108 154 347 151 412 0 17 -2 17 -11 -4 -6 -12 -21
-25 -33 -28 -35 -9 -89 10 -101 35 -11 21 -12 22 -17 5z"/>
<path d="M4517 6824 c-38 -47 -91 -73 -118 -56 -10 7 -19 9 -19 4 0 -35 140
-405 182 -479 10 -18 27 -50 39 -70 12 -21 36 -57 55 -80 19 -23 34 -45 34
-49 0 -4 -41 -50 -92 -102 -86 -89 -90 -96 -70 -103 33 -13 101 -69 104 -88 2
-11 30 12 90 74 47 49 88 88 90 85 74 -91 183 -213 286 -318 110 -113 106
-104 112 -286 3 -107 9 -169 18 -184 49 -85 280 -60 562 59 149 64 435 222
503 279 7 6 55 42 107 82 81 60 297 242 380 319 14 13 49 46 78 73 29 27 55
47 58 44 2 -3 13 -42 24 -86 111 -464 96 -983 -40 -1350 -34 -93 -42 -111
-100 -227 -121 -241 -326 -479 -561 -652 -62 -45 -148 -97 -153 -92 -2 2 -14
24 -26 49 -65 128 -207 298 -323 386 -74 56 -216 124 -319 153 -271 76 -579
21 -849 -154 -79 -51 -219 -187 -289 -280 -25 -33 -47 -62 -50 -65 -20 -19
-73 -107 -103 -170 -49 -101 -71 -189 -72 -285 0 -77 23 -182 48 -212 5 -7 6
-13 1 -13 -5 0 -4 -4 1 -8 6 -4 27 -32 47 -63 77 -117 188 -204 374 -294 51
-24 95 -48 98 -53 3 -6 -29 -39 -71 -74 -147 -121 -306 -205 -473 -249 -116
-31 -326 -31 -528 -1 -203 31 -357 30 -459 -3 -241 -79 -477 -293 -606 -550
-29 -58 -82 -214 -91 -267 l-7 -36 58 -13 c32 -7 66 -19 75 -27 15 -12 17 -9
23 35 19 128 108 311 209 428 162 188 349 295 516 295 33 0 149 -12 257 -26
314 -41 492 -32 696 37 145 49 323 154 474 280 92 77 108 109 101 194 -7 83
-27 101 -204 189 -143 71 -165 85 -233 155 -47 47 -87 99 -106 136 -27 54 -30
69 -29 150 1 105 22 165 96 280 191 293 394 448 675 515 160 38 313 23 481
-48 183 -77 351 -249 452 -465 30 -63 72 -91 145 -95 57 -3 64 -1 145 48 350
214 648 565 801 947 108 269 154 528 154 858 -1 219 -18 386 -59 575 -55 251
-75 290 -159 315 -46 13 -59 13 -100 1 -25 -7 -53 -20 -60 -27 -66 -64 -300
-272 -387 -345 -121 -100 -273 -213 -360 -267 -185 -114 -501 -246 -629 -263
l-51 -7 0 69 c-1 95 -17 208 -34 241 -26 51 -120 170 -212 269 -110 120 -151
167 -191 219 -169 222 -306 490 -359 708 -9 37 -19 67 -23 67 -3 0 -19 -16
-34 -36z"/>
<path d="M926 5863 c-69 -181 -90 -333 -83 -583 4 -150 10 -206 31 -295 91
-386 256 -698 506 -955 49 -50 170 -156 210 -183 14 -10 50 -34 80 -55 30 -20
56 -40 58 -44 2 -5 7 -8 12 -8 4 0 38 -18 76 -40 95 -55 290 -142 414 -183
142 -47 368 -101 517 -122 l122 -18 -37 -51 c-154 -213 -441 -436 -697 -541
-126 -52 -313 -105 -371 -105 -32 0 -31 -6 12 -65 23 -33 34 -58 31 -72 -6
-30 13 -30 139 2 101 26 156 45 279 97 70 29 254 129 284 154 9 7 54 41 101
75 101 74 285 256 358 354 55 74 112 182 132 252 11 35 18 43 44 49 76 16 199
73 306 142 111 72 294 256 384 385 70 101 196 332 196 360 0 21 -77 57 -122
57 -35 0 -37 -2 -78 -84 -88 -178 -165 -290 -289 -420 -130 -135 -255 -217
-414 -270 l-78 -27 -70 73 c-85 88 -200 236 -259 336 -39 64 -66 100 -58 75 2
-4 -10 -20 -25 -35 -25 -25 -27 -32 -24 -100 2 -62 -2 -78 -21 -105 -12 -17
-22 -40 -22 -50 0 -17 102 -110 329 -300 l26 -21 -50 5 c-70 7 -291 49 -383
74 -224 59 -445 150 -636 261 -331 194 -588 491 -722 838 -48 121 -53 138 -74
219 -60 236 -64 450 -15 731 5 28 0 48 -29 102 -19 37 -38 87 -41 112 -4 25
-11 46 -15 46 -5 0 -20 -30 -34 -67z"/>
<path d="M9135 5301 c-94 -16 -187 -88 -236 -183 -30 -59 -37 -168 -15 -236
36 -106 116 -180 228 -208 77 -20 138 -14 213 22 69 32 116 78 152 147 23 44
27 65 27 137 1 75 -3 92 -29 143 -16 32 -45 74 -65 94 -65 64 -180 100 -275
84z m142 -168 c15 -10 40 -36 57 -57 82 -101 -9 -270 -145 -268 -70 1 -132 41
-162 104 -56 118 39 254 171 245 32 -2 63 -11 79 -24z"/>
<path d="M2621 4249 c-1 -8 6 -24 15 -35 15 -19 15 -19 6 1 -5 11 -12 27 -15
35 -5 13 -6 13 -6 -1z"/>
<path d="M4998 3962 c-100 -30 -133 -63 -228 -222 -91 -154 -190 -268 -285
-330 -84 -55 -105 -79 -105 -121 0 -29 7 -43 30 -62 52 -44 109 -59 207 -56
75 3 98 9 153 36 170 84 256 256 218 435 -13 61 -14 77 -3 98 34 65 134 128
230 145 91 17 100 47 23 70 -82 25 -174 27 -240 7z"/>
<path d="M3060 2009 c-73 -33 -146 -94 -196 -165 -62 -86 -82 -125 -105 -204
-23 -77 -24 -100 -6 -125 13 -16 18 -12 63 56 62 94 166 198 223 224 43 19 43
19 79 0 22 -12 45 -36 57 -59 11 -22 25 -41 31 -43 7 -2 24 34 39 83 23 72 27
98 22 150 -9 98 -15 104 -95 104 -46 0 -81 -7 -112 -21z"/>
<path d="M4913 1908 c-78 -53 -201 -76 -476 -88 -450 -18 -527 -26 -652 -66
-93 -29 -230 -96 -316 -155 -159 -108 -333 -305 -442 -499 l-36 -65 43 -3 c49
-2 116 -27 116 -42 0 -18 19 -10 25 10 13 40 124 198 186 265 143 153 249 181
558 150 90 -9 167 -18 170 -19 3 -2 77 -16 163 -30 196 -33 281 -34 351 -4
122 51 236 181 299 340 32 81 67 224 57 232 -2 2 -23 -10 -46 -26z"/>
<path d="M6630 1660 c-8 -5 -10 -10 -5 -10 6 0 17 5 25 10 8 5 11 10 5 10 -5
0 -17 -5 -25 -10z"/>
</g>
</svg>
